<mxfile host="app.diagrams.net" modified="2022-12-08T10:12:22.861Z" agent="5.0 (Windows NT 10.0; Win64; x64) AppleWebKit/537.36 (KHTML, like Gecko) Chrome/107.0.0.0 Safari/537.36 Edg/107.0.1418.62" etag="dLk05m9bI4HT3iWADzOp" version="20.6.0" type="github">
  <diagram id="f5-VNRStMy4sc9KcdbKL" name="페이지-1">
    <mxGraphModel dx="971" dy="784" grid="1" gridSize="10" guides="1" tooltips="1" connect="1" arrows="1" fold="1" page="1" pageScale="1" pageWidth="827" pageHeight="1169" math="0" shadow="0">
      <root>
        <mxCell id="0" />
        <mxCell id="1" parent="0" />
        <mxCell id="5Njhq3zu1dx3889uRiKy-1" value="회원" style="rounded=0;whiteSpace=wrap;html=1;" parent="1" vertex="1">
          <mxGeometry x="180" y="200" width="120" height="60" as="geometry" />
        </mxCell>
        <mxCell id="5Njhq3zu1dx3889uRiKy-2" value="게시글" style="rounded=0;whiteSpace=wrap;html=1;" parent="1" vertex="1">
          <mxGeometry x="500" y="200" width="120" height="60" as="geometry" />
        </mxCell>
        <mxCell id="5Njhq3zu1dx3889uRiKy-3" value="카테고리" style="rounded=0;whiteSpace=wrap;html=1;" parent="1" vertex="1">
          <mxGeometry x="500" y="430" width="120" height="60" as="geometry" />
        </mxCell>
        <mxCell id="5Njhq3zu1dx3889uRiKy-4" value="포함" style="rhombus;whiteSpace=wrap;html=1;" parent="1" vertex="1">
          <mxGeometry x="500" y="300" width="120" height="70" as="geometry" />
        </mxCell>
        <mxCell id="5Njhq3zu1dx3889uRiKy-5" value="작성" style="rhombus;whiteSpace=wrap;html=1;" parent="1" vertex="1">
          <mxGeometry x="340" y="200" width="120" height="60" as="geometry" />
        </mxCell>
        <mxCell id="5Njhq3zu1dx3889uRiKy-8" value="&lt;u&gt;아이디&lt;/u&gt;" style="ellipse;whiteSpace=wrap;html=1;" parent="1" vertex="1">
          <mxGeometry x="10" y="110" width="100" height="50" as="geometry" />
        </mxCell>
        <mxCell id="5Njhq3zu1dx3889uRiKy-9" value="비번" style="ellipse;whiteSpace=wrap;html=1;" parent="1" vertex="1">
          <mxGeometry x="10" y="170" width="100" height="50" as="geometry" />
        </mxCell>
        <mxCell id="5Njhq3zu1dx3889uRiKy-10" value="이름" style="ellipse;whiteSpace=wrap;html=1;" parent="1" vertex="1">
          <mxGeometry x="10" y="240" width="100" height="50" as="geometry" />
        </mxCell>
        <mxCell id="5Njhq3zu1dx3889uRiKy-11" value="" style="endArrow=none;html=1;rounded=0;exitX=1;exitY=0.5;exitDx=0;exitDy=0;entryX=0;entryY=0.5;entryDx=0;entryDy=0;" parent="1" source="5Njhq3zu1dx3889uRiKy-8" target="5Njhq3zu1dx3889uRiKy-1" edge="1">
          <mxGeometry width="50" height="50" relative="1" as="geometry">
            <mxPoint x="370" y="430" as="sourcePoint" />
            <mxPoint x="420" y="380" as="targetPoint" />
          </mxGeometry>
        </mxCell>
        <mxCell id="5Njhq3zu1dx3889uRiKy-12" value="" style="endArrow=none;html=1;rounded=0;exitX=1;exitY=0.5;exitDx=0;exitDy=0;" parent="1" source="5Njhq3zu1dx3889uRiKy-9" edge="1">
          <mxGeometry width="50" height="50" relative="1" as="geometry">
            <mxPoint x="120" y="145" as="sourcePoint" />
            <mxPoint x="180" y="230" as="targetPoint" />
          </mxGeometry>
        </mxCell>
        <mxCell id="5Njhq3zu1dx3889uRiKy-13" value="" style="endArrow=none;html=1;rounded=0;exitX=1;exitY=0.5;exitDx=0;exitDy=0;" parent="1" source="5Njhq3zu1dx3889uRiKy-10" edge="1">
          <mxGeometry width="50" height="50" relative="1" as="geometry">
            <mxPoint x="120" y="205" as="sourcePoint" />
            <mxPoint x="180" y="230" as="targetPoint" />
          </mxGeometry>
        </mxCell>
        <mxCell id="5Njhq3zu1dx3889uRiKy-14" value="" style="endArrow=none;html=1;rounded=0;entryX=1;entryY=0.5;entryDx=0;entryDy=0;exitX=0;exitY=0.5;exitDx=0;exitDy=0;" parent="1" source="5Njhq3zu1dx3889uRiKy-5" target="5Njhq3zu1dx3889uRiKy-1" edge="1">
          <mxGeometry width="50" height="50" relative="1" as="geometry">
            <mxPoint x="370" y="430" as="sourcePoint" />
            <mxPoint x="420" y="380" as="targetPoint" />
          </mxGeometry>
        </mxCell>
        <mxCell id="5Njhq3zu1dx3889uRiKy-15" value="번호" style="ellipse;whiteSpace=wrap;html=1;fontStyle=4" parent="1" vertex="1">
          <mxGeometry x="680" y="50" width="100" height="50" as="geometry" />
        </mxCell>
        <mxCell id="5Njhq3zu1dx3889uRiKy-16" value="제목" style="ellipse;whiteSpace=wrap;html=1;" parent="1" vertex="1">
          <mxGeometry x="680" y="120" width="100" height="50" as="geometry" />
        </mxCell>
        <mxCell id="5Njhq3zu1dx3889uRiKy-17" value="내용" style="ellipse;whiteSpace=wrap;html=1;" parent="1" vertex="1">
          <mxGeometry x="680" y="190" width="100" height="50" as="geometry" />
        </mxCell>
        <mxCell id="5Njhq3zu1dx3889uRiKy-18" value="작성자 아이디&lt;br&gt;(FK)" style="ellipse;whiteSpace=wrap;html=1;" parent="1" vertex="1">
          <mxGeometry x="680" y="260" width="100" height="50" as="geometry" />
        </mxCell>
        <mxCell id="5Njhq3zu1dx3889uRiKy-19" value="작성일" style="ellipse;whiteSpace=wrap;html=1;" parent="1" vertex="1">
          <mxGeometry x="680" y="330" width="100" height="50" as="geometry" />
        </mxCell>
        <mxCell id="5Njhq3zu1dx3889uRiKy-21" value="카테고리번호&lt;br&gt;(FK)" style="ellipse;whiteSpace=wrap;html=1;" parent="1" vertex="1">
          <mxGeometry x="680" y="400" width="100" height="50" as="geometry" />
        </mxCell>
        <mxCell id="5Njhq3zu1dx3889uRiKy-22" value="카테고리명" style="ellipse;whiteSpace=wrap;html=1;" parent="1" vertex="1">
          <mxGeometry x="510" y="535" width="100" height="50" as="geometry" />
        </mxCell>
        <mxCell id="5Njhq3zu1dx3889uRiKy-23" value="" style="endArrow=none;html=1;rounded=0;entryX=0;entryY=0.5;entryDx=0;entryDy=0;exitX=1;exitY=0.5;exitDx=0;exitDy=0;" parent="1" source="5Njhq3zu1dx3889uRiKy-5" target="5Njhq3zu1dx3889uRiKy-2" edge="1">
          <mxGeometry width="50" height="50" relative="1" as="geometry">
            <mxPoint x="430" y="310" as="sourcePoint" />
            <mxPoint x="480" y="260" as="targetPoint" />
          </mxGeometry>
        </mxCell>
        <mxCell id="5Njhq3zu1dx3889uRiKy-24" value="" style="endArrow=none;html=1;rounded=0;entryX=0;entryY=0.5;entryDx=0;entryDy=0;exitX=1;exitY=0.5;exitDx=0;exitDy=0;" parent="1" source="5Njhq3zu1dx3889uRiKy-2" target="5Njhq3zu1dx3889uRiKy-15" edge="1">
          <mxGeometry width="50" height="50" relative="1" as="geometry">
            <mxPoint x="470" y="240" as="sourcePoint" />
            <mxPoint x="510" y="240" as="targetPoint" />
          </mxGeometry>
        </mxCell>
        <mxCell id="5Njhq3zu1dx3889uRiKy-25" value="" style="endArrow=none;html=1;rounded=0;entryX=0;entryY=0.5;entryDx=0;entryDy=0;" parent="1" target="5Njhq3zu1dx3889uRiKy-16" edge="1">
          <mxGeometry width="50" height="50" relative="1" as="geometry">
            <mxPoint x="620" y="230" as="sourcePoint" />
            <mxPoint x="690" y="85" as="targetPoint" />
          </mxGeometry>
        </mxCell>
        <mxCell id="5Njhq3zu1dx3889uRiKy-26" value="" style="endArrow=none;html=1;rounded=0;entryX=0;entryY=0.5;entryDx=0;entryDy=0;" parent="1" target="5Njhq3zu1dx3889uRiKy-17" edge="1">
          <mxGeometry width="50" height="50" relative="1" as="geometry">
            <mxPoint x="620" y="230" as="sourcePoint" />
            <mxPoint x="700" y="95" as="targetPoint" />
          </mxGeometry>
        </mxCell>
        <mxCell id="5Njhq3zu1dx3889uRiKy-27" value="" style="endArrow=none;html=1;rounded=0;entryX=0;entryY=0.5;entryDx=0;entryDy=0;" parent="1" target="5Njhq3zu1dx3889uRiKy-18" edge="1">
          <mxGeometry width="50" height="50" relative="1" as="geometry">
            <mxPoint x="620" y="230" as="sourcePoint" />
            <mxPoint x="690" y="225" as="targetPoint" />
          </mxGeometry>
        </mxCell>
        <mxCell id="5Njhq3zu1dx3889uRiKy-28" value="" style="endArrow=none;html=1;rounded=0;entryX=0;entryY=0.5;entryDx=0;entryDy=0;" parent="1" target="5Njhq3zu1dx3889uRiKy-19" edge="1">
          <mxGeometry width="50" height="50" relative="1" as="geometry">
            <mxPoint x="620" y="230" as="sourcePoint" />
            <mxPoint x="690" y="295" as="targetPoint" />
          </mxGeometry>
        </mxCell>
        <mxCell id="5Njhq3zu1dx3889uRiKy-29" value="" style="endArrow=none;html=1;rounded=0;entryX=0;entryY=0.5;entryDx=0;entryDy=0;exitX=1;exitY=0.5;exitDx=0;exitDy=0;" parent="1" source="5Njhq3zu1dx3889uRiKy-2" target="5Njhq3zu1dx3889uRiKy-21" edge="1">
          <mxGeometry width="50" height="50" relative="1" as="geometry">
            <mxPoint x="630" y="240" as="sourcePoint" />
            <mxPoint x="690" y="365" as="targetPoint" />
          </mxGeometry>
        </mxCell>
        <mxCell id="5Njhq3zu1dx3889uRiKy-30" value="" style="endArrow=none;html=1;rounded=0;exitX=0.5;exitY=1;exitDx=0;exitDy=0;entryX=0.5;entryY=0;entryDx=0;entryDy=0;" parent="1" source="5Njhq3zu1dx3889uRiKy-2" target="5Njhq3zu1dx3889uRiKy-4" edge="1">
          <mxGeometry width="50" height="50" relative="1" as="geometry">
            <mxPoint x="630" y="240" as="sourcePoint" />
            <mxPoint x="560" y="530" as="targetPoint" />
          </mxGeometry>
        </mxCell>
        <mxCell id="5Njhq3zu1dx3889uRiKy-31" value="" style="endArrow=none;html=1;rounded=0;exitX=0.5;exitY=1;exitDx=0;exitDy=0;entryX=0.5;entryY=0;entryDx=0;entryDy=0;" parent="1" source="5Njhq3zu1dx3889uRiKy-4" target="5Njhq3zu1dx3889uRiKy-3" edge="1">
          <mxGeometry width="50" height="50" relative="1" as="geometry">
            <mxPoint x="570" y="270" as="sourcePoint" />
            <mxPoint x="570" y="310" as="targetPoint" />
          </mxGeometry>
        </mxCell>
        <mxCell id="5Njhq3zu1dx3889uRiKy-32" value="" style="endArrow=none;html=1;rounded=0;entryX=0.5;entryY=0;entryDx=0;entryDy=0;" parent="1" target="5Njhq3zu1dx3889uRiKy-22" edge="1">
          <mxGeometry width="50" height="50" relative="1" as="geometry">
            <mxPoint x="560" y="490" as="sourcePoint" />
            <mxPoint x="570" y="440" as="targetPoint" />
          </mxGeometry>
        </mxCell>
        <mxCell id="YdWPVdfiSE-Kn_jrzKR6-1" value="카테고리 번호" style="ellipse;whiteSpace=wrap;html=1;fontStyle=4" parent="1" vertex="1">
          <mxGeometry x="380" y="535" width="100" height="50" as="geometry" />
        </mxCell>
        <mxCell id="YdWPVdfiSE-Kn_jrzKR6-2" value="" style="endArrow=none;html=1;rounded=0;entryX=0.5;entryY=0;entryDx=0;entryDy=0;exitX=0.5;exitY=1;exitDx=0;exitDy=0;" parent="1" source="5Njhq3zu1dx3889uRiKy-3" target="YdWPVdfiSE-Kn_jrzKR6-1" edge="1">
          <mxGeometry width="50" height="50" relative="1" as="geometry">
            <mxPoint x="430" y="490" as="sourcePoint" />
            <mxPoint x="440" y="440" as="targetPoint" />
          </mxGeometry>
        </mxCell>
        <mxCell id="YdWPVdfiSE-Kn_jrzKR6-3" value="&lt;div style=&quot;margin: 0px; padding: 0px; user-select: text; -webkit-user-drag: none; -webkit-tap-highlight-color: transparent; overflow: visible; cursor: text; clear: both; position: relative; direction: ltr; font-family: &amp;quot;맑은 고딕&amp;quot;, &amp;quot;Segoe UI&amp;quot;, &amp;quot;Segoe UI Web&amp;quot;, Arial, Verdana, sans-serif; font-size: 14px;&quot; class=&quot;OutlineElement Ltr  BCX8 SCXO28877632&quot;&gt;&lt;p style=&quot;margin: 0px; padding: 0px; user-select: text; -webkit-user-drag: none; -webkit-tap-highlight-color: transparent; overflow-wrap: break-word; vertical-align: baseline; font-kerning: none; color: windowtext; font-size: 14px;&quot; lang=&quot;KO-KR&quot; class=&quot;Paragraph SCXO28877632 BCX8&quot;&gt;&lt;font style=&quot;font-size: 14px;&quot;&gt;&lt;span style=&quot;margin: 0px; padding: 0px; user-select: text; -webkit-user-drag: none; -webkit-tap-highlight-color: transparent; color: windowtext; font-family: &amp;quot;맑은 고딕&amp;quot;, sans-serif; line-height: 20px; font-size: 14px; font-variant-ligatures: none !important;&quot; lang=&quot;KO-KR&quot; class=&quot;TextRun SCXO28877632 BCX8&quot; data-contrast=&quot;auto&quot;&gt;게시글 관리 프로그램을 위한 ERD&lt;/span&gt;&lt;span style=&quot;margin: 0px; padding: 0px; user-select: text; -webkit-user-drag: none; -webkit-tap-highlight-color: transparent; line-height: 20px; font-family: &amp;quot;맑은 고딕&amp;quot;, sans-serif; color: windowtext; font-size: 14px;&quot; class=&quot;EOP SCXO28877632 BCX8&quot;&gt;&amp;nbsp;&lt;/span&gt;&lt;/font&gt;&lt;/p&gt;&lt;/div&gt;&lt;div style=&quot;margin: 0px; padding: 0px; user-select: text; -webkit-user-drag: none; -webkit-tap-highlight-color: transparent; overflow: visible; cursor: text; clear: both; position: relative; direction: ltr; font-family: &amp;quot;맑은 고딕&amp;quot;, &amp;quot;Segoe UI&amp;quot;, &amp;quot;Segoe UI Web&amp;quot;, Arial, Verdana, sans-serif; font-size: 14px;&quot; class=&quot;OutlineElement Ltr  BCX8 SCXO28877632&quot;&gt;&lt;p style=&quot;margin: 0px; padding: 0px; user-select: text; -webkit-user-drag: none; -webkit-tap-highlight-color: transparent; overflow-wrap: break-word; vertical-align: baseline; font-kerning: none; color: windowtext; font-size: 14px;&quot; lang=&quot;KO-KR&quot; class=&quot;Paragraph SCXO28877632 BCX8&quot;&gt;&lt;font style=&quot;font-size: 14px;&quot;&gt;&lt;span style=&quot;margin: 0px; padding: 0px; user-select: text; -webkit-user-drag: none; -webkit-tap-highlight-color: transparent; color: windowtext; font-family: &amp;quot;맑은 고딕&amp;quot;, sans-serif; line-height: 20px; font-size: 14px; font-variant-ligatures: none !important;&quot; lang=&quot;KO-KR&quot; class=&quot;TextRun SCXO28877632 BCX8&quot; data-contrast=&quot;auto&quot;&gt;-회원가입&lt;/span&gt;&lt;span style=&quot;margin: 0px; padding: 0px; user-select: text; -webkit-user-drag: none; -webkit-tap-highlight-color: transparent; line-height: 20px; font-family: &amp;quot;맑은 고딕&amp;quot;, sans-serif; color: windowtext; font-size: 14px;&quot; class=&quot;EOP SCXO28877632 BCX8&quot;&gt;&amp;nbsp;&lt;/span&gt;&lt;/font&gt;&lt;/p&gt;&lt;/div&gt;&lt;div style=&quot;margin: 0px; padding: 0px; user-select: text; -webkit-user-drag: none; -webkit-tap-highlight-color: transparent; overflow: visible; cursor: text; clear: both; position: relative; direction: ltr; font-family: &amp;quot;맑은 고딕&amp;quot;, &amp;quot;Segoe UI&amp;quot;, &amp;quot;Segoe UI Web&amp;quot;, Arial, Verdana, sans-serif; font-size: 14px;&quot; class=&quot;OutlineElement Ltr SCXO28877632 BCX8&quot;&gt;&lt;p style=&quot;margin: 0px; padding: 0px; user-select: text; -webkit-user-drag: none; -webkit-tap-highlight-color: transparent; overflow-wrap: break-word; vertical-align: baseline; font-kerning: none; color: windowtext; font-size: 14px;&quot; lang=&quot;KO-KR&quot; class=&quot;Paragraph SCXO28877632 BCX8&quot;&gt;&lt;font style=&quot;font-size: 14px;&quot;&gt;&lt;span style=&quot;margin: 0px; padding: 0px; user-select: text; -webkit-user-drag: none; -webkit-tap-highlight-color: transparent; color: windowtext; font-family: &amp;quot;맑은 고딕&amp;quot;, sans-serif; line-height: 20px; font-size: 14px; font-variant-ligatures: none !important;&quot; lang=&quot;KO-KR&quot; class=&quot;TextRun SCXO28877632 BCX8&quot; data-contrast=&quot;auto&quot;&gt;-로그인&lt;/span&gt;&lt;span style=&quot;margin: 0px; padding: 0px; user-select: text; -webkit-user-drag: none; -webkit-tap-highlight-color: transparent; line-height: 20px; font-family: &amp;quot;맑은 고딕&amp;quot;, sans-serif; color: windowtext; font-size: 14px;&quot; class=&quot;EOP SCXO28877632 BCX8&quot;&gt;&amp;nbsp;&lt;/span&gt;&lt;/font&gt;&lt;/p&gt;&lt;/div&gt;&lt;div style=&quot;margin: 0px; padding: 0px; user-select: text; -webkit-user-drag: none; -webkit-tap-highlight-color: transparent; overflow: visible; cursor: text; clear: both; position: relative; direction: ltr; font-family: &amp;quot;맑은 고딕&amp;quot;, &amp;quot;Segoe UI&amp;quot;, &amp;quot;Segoe UI Web&amp;quot;, Arial, Verdana, sans-serif; font-size: 14px;&quot; class=&quot;OutlineElement Ltr SCXO28877632 BCX8&quot;&gt;&lt;p style=&quot;margin: 0px; padding: 0px; user-select: text; -webkit-user-drag: none; -webkit-tap-highlight-color: transparent; overflow-wrap: break-word; vertical-align: baseline; font-kerning: none; color: windowtext; font-size: 14px;&quot; lang=&quot;KO-KR&quot; class=&quot;Paragraph SCXO28877632 BCX8&quot;&gt;&lt;font style=&quot;font-size: 14px;&quot;&gt;&lt;span style=&quot;margin: 0px; padding: 0px; user-select: text; -webkit-user-drag: none; -webkit-tap-highlight-color: transparent; color: windowtext; font-family: &amp;quot;맑은 고딕&amp;quot;, sans-serif; line-height: 20px; font-size: 14px; font-variant-ligatures: none !important;&quot; lang=&quot;KO-KR&quot; class=&quot;TextRun SCXO28877632 BCX8&quot; data-contrast=&quot;auto&quot;&gt;-게시글 등록/수정/삭제/확인&lt;/span&gt;&lt;span style=&quot;margin: 0px; padding: 0px; user-select: text; -webkit-user-drag: none; -webkit-tap-highlight-color: transparent; line-height: 20px; font-family: &amp;quot;맑은 고딕&amp;quot;, sans-serif; color: windowtext; font-size: 14px;&quot; class=&quot;EOP SCXO28877632 BCX8&quot;&gt;&amp;nbsp;&lt;/span&gt;&lt;/font&gt;&lt;/p&gt;&lt;/div&gt;&lt;div style=&quot;margin: 0px; padding: 0px; user-select: text; -webkit-user-drag: none; -webkit-tap-highlight-color: transparent; overflow: visible; cursor: text; clear: both; position: relative; direction: ltr; font-family: &amp;quot;맑은 고딕&amp;quot;, &amp;quot;Segoe UI&amp;quot;, &amp;quot;Segoe UI Web&amp;quot;, Arial, Verdana, sans-serif; font-size: 14px;&quot; class=&quot;OutlineElement Ltr SCXO28877632 BCX8&quot;&gt;&lt;p style=&quot;margin: 0px; padding: 0px; user-select: text; -webkit-user-drag: none; -webkit-tap-highlight-color: transparent; overflow-wrap: break-word; vertical-align: baseline; font-kerning: none; color: windowtext; font-size: 14px;&quot; lang=&quot;KO-KR&quot; class=&quot;Paragraph SCXO28877632 BCX8&quot;&gt;&lt;font style=&quot;font-size: 14px;&quot;&gt;&lt;span style=&quot;margin: 0px; padding: 0px; user-select: text; -webkit-user-drag: none; -webkit-tap-highlight-color: transparent; color: windowtext; font-family: &amp;quot;맑은 고딕&amp;quot;, sans-serif; line-height: 20px; font-size: 14px; font-variant-ligatures: none !important;&quot; lang=&quot;KO-KR&quot; class=&quot;TextRun SCXO28877632 BCX8&quot; data-contrast=&quot;auto&quot;&gt;-카테고리 등록/수정/삭제/확인&lt;/span&gt;&lt;span style=&quot;margin: 0px; padding: 0px; user-select: text; -webkit-user-drag: none; -webkit-tap-highlight-color: transparent; line-height: 20px; font-family: &amp;quot;맑은 고딕&amp;quot;, sans-serif; color: windowtext; font-size: 14px;&quot; class=&quot;EOP SCXO28877632 BCX8&quot;&gt;&amp;nbsp;&lt;/span&gt;&lt;/font&gt;&lt;/p&gt;&lt;/div&gt;&lt;div style=&quot;margin: 0px; padding: 0px; user-select: text; -webkit-user-drag: none; -webkit-tap-highlight-color: transparent; overflow: visible; cursor: text; clear: both; position: relative; direction: ltr; font-family: &amp;quot;맑은 고딕&amp;quot;, &amp;quot;Segoe UI&amp;quot;, &amp;quot;Segoe UI Web&amp;quot;, Arial, Verdana, sans-serif; font-size: 14px;&quot; class=&quot;OutlineElement Ltr SCXO28877632 BCX8&quot;&gt;&lt;p style=&quot;margin: 0px; padding: 0px; user-select: text; -webkit-user-drag: none; -webkit-tap-highlight-color: transparent; overflow-wrap: break-word; vertical-align: baseline; font-kerning: none; color: windowtext; font-size: 14px;&quot; lang=&quot;KO-KR&quot; class=&quot;Paragraph SCXO28877632 BCX8&quot;&gt;&lt;font style=&quot;font-size: 14px;&quot;&gt;&lt;span style=&quot;margin: 0px; padding: 0px; user-select: text; -webkit-user-drag: none; -webkit-tap-highlight-color: transparent; color: windowtext; font-family: &amp;quot;맑은 고딕&amp;quot;, sans-serif; line-height: 20px; font-size: 14px; font-variant-ligatures: none !important;&quot; lang=&quot;KO-KR&quot; class=&quot;TextRun SCXO28877632 BCX8&quot; data-contrast=&quot;auto&quot;&gt;&lt;span style=&quot;margin: 0px; padding: 0px; user-select: text; -webkit-user-drag: none; -webkit-tap-highlight-color: transparent; font-size: 14px;&quot; class=&quot;NormalTextRun SCXO28877632 BCX8&quot;&gt;&lt;/span&gt;&lt;/span&gt;&lt;span style=&quot;margin: 0px; padding: 0px; user-select: text; -webkit-user-drag: none; -webkit-tap-highlight-color: transparent; line-height: 20px; font-family: &amp;quot;맑은 고딕&amp;quot;, sans-serif; color: windowtext; font-size: 14px;&quot; class=&quot;EOP SCXO28877632 BCX8&quot;&gt;&amp;nbsp;&lt;/span&gt;&lt;/font&gt;&lt;/p&gt;&lt;/div&gt;&lt;div style=&quot;margin: 0px; padding: 0px; user-select: text; -webkit-user-drag: none; -webkit-tap-highlight-color: transparent; overflow: visible; cursor: text; clear: both; position: relative; direction: ltr; font-family: &amp;quot;맑은 고딕&amp;quot;, &amp;quot;Segoe UI&amp;quot;, &amp;quot;Segoe UI Web&amp;quot;, Arial, Verdana, sans-serif; font-size: 14px;&quot; class=&quot;OutlineElement Ltr SCXO28877632 BCX8&quot;&gt;&lt;p style=&quot;margin: 0px; padding: 0px; user-select: text; -webkit-user-drag: none; -webkit-tap-highlight-color: transparent; overflow-wrap: break-word; vertical-align: baseline; font-kerning: none; color: windowtext; font-size: 14px;&quot; lang=&quot;KO-KR&quot; class=&quot;Paragraph SCXO28877632 BCX8&quot;&gt;&lt;font style=&quot;font-size: 14px;&quot;&gt;&lt;span style=&quot;margin: 0px; padding: 0px; user-select: text; -webkit-user-drag: none; -webkit-tap-highlight-color: transparent; color: windowtext; font-family: &amp;quot;맑은 고딕&amp;quot;, sans-serif; line-height: 20px; font-size: 14px; font-variant-ligatures: none !important;&quot; lang=&quot;KO-KR&quot; class=&quot;TextRun SCXO28877632 BCX8&quot; data-contrast=&quot;auto&quot;&gt;회원정보&lt;/span&gt;&lt;span style=&quot;margin: 0px; padding: 0px; user-select: text; -webkit-user-drag: none; -webkit-tap-highlight-color: transparent; line-height: 20px; font-family: &amp;quot;맑은 고딕&amp;quot;, sans-serif; color: windowtext; font-size: 14px;&quot; class=&quot;EOP SCXO28877632 BCX8&quot;&gt;&amp;nbsp;&lt;/span&gt;&lt;/font&gt;&lt;/p&gt;&lt;/div&gt;&lt;div style=&quot;margin: 0px; padding: 0px; user-select: text; -webkit-user-drag: none; -webkit-tap-highlight-color: transparent; overflow: visible; cursor: text; clear: both; position: relative; direction: ltr; font-family: &amp;quot;맑은 고딕&amp;quot;, &amp;quot;Segoe UI&amp;quot;, &amp;quot;Segoe UI Web&amp;quot;, Arial, Verdana, sans-serif; font-size: 14px;&quot; class=&quot;OutlineElement Ltr SCXO28877632 BCX8&quot;&gt;&lt;p style=&quot;margin: 0px; padding: 0px; user-select: text; -webkit-user-drag: none; -webkit-tap-highlight-color: transparent; overflow-wrap: break-word; vertical-align: baseline; font-kerning: none; color: windowtext; font-size: 14px;&quot; lang=&quot;KO-KR&quot; class=&quot;Paragraph SCXO28877632 BCX8&quot;&gt;&lt;font style=&quot;font-size: 14px;&quot;&gt;&lt;span style=&quot;margin: 0px; padding: 0px; user-select: text; -webkit-user-drag: none; -webkit-tap-highlight-color: transparent; color: windowtext; font-family: &amp;quot;맑은 고딕&amp;quot;, sans-serif; line-height: 20px; font-size: 14px; font-variant-ligatures: none !important;&quot; lang=&quot;KO-KR&quot; class=&quot;TextRun SCXO28877632 BCX8&quot; data-contrast=&quot;auto&quot;&gt;&lt;span style=&quot;margin: 0px; padding: 0px; user-select: text; -webkit-user-drag: none; -webkit-tap-highlight-color: transparent; font-size: 14px;&quot; class=&quot;NormalTextRun SCXO28877632 BCX8&quot;&gt;-&lt;/span&gt;&lt;span style=&quot;margin: 0px; padding: 0px; user-select: text; -webkit-user-drag: none; -webkit-tap-highlight-color: transparent; background-repeat: repeat-x; background-position: left bottom; background-image: url(&amp;quot;data:image/gif;base64,R0lGODlhBQAEAJECAP////8AAAAAAAAAACH5BAEAAAIALAAAAAAFAAQAAAIIlGAXCCHrTCgAOw==&amp;quot;); border-bottom: 1px solid transparent; font-size: 14px;&quot; class=&quot;SpellingError SCXO28877632 BCX8&quot;&gt;아이디, 비번, 이름&lt;/span&gt;&lt;/span&gt;&lt;span style=&quot;margin: 0px; padding: 0px; user-select: text; -webkit-user-drag: none; -webkit-tap-highlight-color: transparent; line-height: 20px; font-family: &amp;quot;맑은 고딕&amp;quot;, sans-serif; color: windowtext; font-size: 14px;&quot; class=&quot;EOP SCXO28877632 BCX8&quot;&gt;&amp;nbsp;&lt;/span&gt;&lt;/font&gt;&lt;/p&gt;&lt;/div&gt;&lt;div style=&quot;margin: 0px; padding: 0px; user-select: text; -webkit-user-drag: none; -webkit-tap-highlight-color: transparent; overflow: visible; cursor: text; clear: both; position: relative; direction: ltr; font-family: &amp;quot;맑은 고딕&amp;quot;, &amp;quot;Segoe UI&amp;quot;, &amp;quot;Segoe UI Web&amp;quot;, Arial, Verdana, sans-serif; font-size: 14px;&quot; class=&quot;OutlineElement Ltr SCXO28877632 BCX8&quot;&gt;&lt;p style=&quot;margin: 0px; padding: 0px; user-select: text; -webkit-user-drag: none; -webkit-tap-highlight-color: transparent; overflow-wrap: break-word; vertical-align: baseline; font-kerning: none; color: windowtext; font-size: 14px;&quot; lang=&quot;KO-KR&quot; class=&quot;Paragraph SCXO28877632 BCX8&quot;&gt;&lt;font style=&quot;font-size: 14px;&quot;&gt;&lt;span style=&quot;margin: 0px; padding: 0px; user-select: text; -webkit-user-drag: none; -webkit-tap-highlight-color: transparent; color: windowtext; font-family: &amp;quot;맑은 고딕&amp;quot;, sans-serif; line-height: 20px; font-size: 14px; font-variant-ligatures: none !important;&quot; lang=&quot;KO-KR&quot; class=&quot;TextRun SCXO28877632 BCX8&quot; data-contrast=&quot;auto&quot;&gt;게시글&lt;/span&gt;&lt;span style=&quot;margin: 0px; padding: 0px; user-select: text; -webkit-user-drag: none; -webkit-tap-highlight-color: transparent; line-height: 20px; font-family: &amp;quot;맑은 고딕&amp;quot;, sans-serif; color: windowtext; font-size: 14px;&quot; class=&quot;EOP SCXO28877632 BCX8&quot;&gt;&amp;nbsp;&lt;/span&gt;&lt;/font&gt;&lt;/p&gt;&lt;/div&gt;&lt;div style=&quot;margin: 0px; padding: 0px; user-select: text; -webkit-user-drag: none; -webkit-tap-highlight-color: transparent; overflow: visible; cursor: text; clear: both; position: relative; direction: ltr; font-family: &amp;quot;맑은 고딕&amp;quot;, &amp;quot;Segoe UI&amp;quot;, &amp;quot;Segoe UI Web&amp;quot;, Arial, Verdana, sans-serif; font-size: 14px;&quot; class=&quot;OutlineElement Ltr SCXO28877632 BCX8&quot;&gt;&lt;p style=&quot;margin: 0px; padding: 0px; user-select: text; -webkit-user-drag: none; -webkit-tap-highlight-color: transparent; overflow-wrap: break-word; vertical-align: baseline; font-kerning: none; color: windowtext; font-size: 14px;&quot; lang=&quot;KO-KR&quot; class=&quot;Paragraph SCXO28877632 BCX8&quot;&gt;&lt;font style=&quot;font-size: 14px;&quot;&gt;&lt;span style=&quot;margin: 0px; padding: 0px; user-select: text; -webkit-user-drag: none; -webkit-tap-highlight-color: transparent; color: windowtext; font-family: &amp;quot;맑은 고딕&amp;quot;, sans-serif; line-height: 20px; font-size: 14px; font-variant-ligatures: none !important;&quot; lang=&quot;KO-KR&quot; class=&quot;TextRun SCXO28877632 BCX8&quot; data-contrast=&quot;auto&quot;&gt;&lt;span style=&quot;margin: 0px; padding: 0px; user-select: text; -webkit-user-drag: none; -webkit-tap-highlight-color: transparent; font-size: 14px;&quot; class=&quot;NormalTextRun SCXO28877632 BCX8&quot;&gt;-게시글&amp;nbsp;&lt;/span&gt;&lt;span style=&quot;margin: 0px; padding: 0px; user-select: text; -webkit-user-drag: none; -webkit-tap-highlight-color: transparent; background-repeat: repeat-x; background-position: left bottom; background-image: url(&amp;quot;data:image/gif;base64,R0lGODlhBQAEAJECAP////8AAAAAAAAAACH5BAEAAAIALAAAAAAFAAQAAAIIlGAXCCHrTCgAOw==&amp;quot;); border-bottom: 1px solid transparent; font-size: 14px;&quot; class=&quot;SpellingError SCXO28877632 BCX8&quot;&gt;번호, 카테고리, 제목, 작성자, 내용, 등록일&lt;/span&gt;&lt;/span&gt;&lt;span style=&quot;margin: 0px; padding: 0px; user-select: text; -webkit-user-drag: none; -webkit-tap-highlight-color: transparent; line-height: 20px; font-family: &amp;quot;맑은 고딕&amp;quot;, sans-serif; color: windowtext; font-size: 14px;&quot; class=&quot;EOP SCXO28877632 BCX8&quot;&gt;&amp;nbsp;&lt;/span&gt;&lt;/font&gt;&lt;/p&gt;&lt;/div&gt;&lt;div style=&quot;margin: 0px; padding: 0px; user-select: text; -webkit-user-drag: none; -webkit-tap-highlight-color: transparent; overflow: visible; cursor: text; clear: both; position: relative; direction: ltr; font-family: &amp;quot;맑은 고딕&amp;quot;, &amp;quot;Segoe UI&amp;quot;, &amp;quot;Segoe UI Web&amp;quot;, Arial, Verdana, sans-serif; font-size: 14px;&quot; class=&quot;OutlineElement Ltr SCXO28877632 BCX8&quot;&gt;&lt;p style=&quot;margin: 0px; padding: 0px; user-select: text; -webkit-user-drag: none; -webkit-tap-highlight-color: transparent; overflow-wrap: break-word; vertical-align: baseline; font-kerning: none; color: windowtext; font-size: 14px;&quot; lang=&quot;KO-KR&quot; class=&quot;Paragraph SCXO28877632 BCX8&quot;&gt;&lt;font style=&quot;font-size: 14px;&quot;&gt;&lt;span style=&quot;margin: 0px; padding: 0px; user-select: text; -webkit-user-drag: none; -webkit-tap-highlight-color: transparent; color: windowtext; font-family: &amp;quot;맑은 고딕&amp;quot;, sans-serif; line-height: 20px; font-size: 14px; font-variant-ligatures: none !important;&quot; lang=&quot;KO-KR&quot; class=&quot;TextRun SCXO28877632 BCX8&quot; data-contrast=&quot;auto&quot;&gt;카테고리&lt;/span&gt;&lt;span style=&quot;margin: 0px; padding: 0px; user-select: text; -webkit-user-drag: none; -webkit-tap-highlight-color: transparent; line-height: 20px; font-family: &amp;quot;맑은 고딕&amp;quot;, sans-serif; color: windowtext; font-size: 14px;&quot; class=&quot;EOP SCXO28877632 BCX8&quot;&gt;&amp;nbsp;&lt;/span&gt;&lt;/font&gt;&lt;/p&gt;&lt;/div&gt;&lt;div style=&quot;margin: 0px; padding: 0px; user-select: text; -webkit-user-drag: none; -webkit-tap-highlight-color: transparent; overflow: visible; cursor: text; clear: both; position: relative; direction: ltr; font-family: &amp;quot;맑은 고딕&amp;quot;, &amp;quot;Segoe UI&amp;quot;, &amp;quot;Segoe UI Web&amp;quot;, Arial, Verdana, sans-serif; font-size: 14px;&quot; class=&quot;OutlineElement Ltr SCXO28877632 BCX8&quot;&gt;&lt;p style=&quot;margin: 0px; padding: 0px; user-select: text; -webkit-user-drag: none; -webkit-tap-highlight-color: transparent; overflow-wrap: break-word; vertical-align: baseline; font-kerning: none; color: windowtext; font-size: 14px;&quot; lang=&quot;KO-KR&quot; class=&quot;Paragraph SCXO28877632 BCX8&quot;&gt;&lt;font style=&quot;font-size: 14px;&quot;&gt;&lt;span style=&quot;margin: 0px; padding: 0px; user-select: text; -webkit-user-drag: none; -webkit-tap-highlight-color: transparent; color: windowtext; font-family: &amp;quot;맑은 고딕&amp;quot;, sans-serif; line-height: 20px; font-size: 14px; font-variant-ligatures: none !important;&quot; lang=&quot;KO-KR&quot; class=&quot;TextRun SCXO28877632 BCX8&quot; data-contrast=&quot;auto&quot;&gt;-카테고리 이름&lt;/span&gt;&lt;span style=&quot;margin: 0px; padding: 0px; user-select: text; -webkit-user-drag: none; -webkit-tap-highlight-color: transparent; line-height: 20px; font-family: &amp;quot;맑은 고딕&amp;quot;, sans-serif; color: windowtext; font-size: 14px;&quot; class=&quot;EOP SCXO28877632 BCX8&quot;&gt;&amp;nbsp;&lt;/span&gt;&lt;/font&gt;&lt;/p&gt;&lt;/div&gt;" style="text;html=1;strokeColor=#d6b656;fillColor=#fff2cc;align=left;verticalAlign=middle;whiteSpace=wrap;rounded=0;labelBackgroundColor=#FFF2CC;fontSize=14;" parent="1" vertex="1">
          <mxGeometry y="300" width="330" height="250" as="geometry" />
        </mxCell>
        <mxCell id="AOfIHI2APopkAjNGr-oA-1" value="회원(&lt;u style=&quot;font-size: 14px;&quot;&gt;아이디&lt;/u&gt;, 비번, 이름)&lt;br style=&quot;font-size: 14px;&quot;&gt;게시글(&lt;u style=&quot;font-size: 14px;&quot;&gt;번호,&lt;/u&gt;&amp;nbsp;제목, 내용, 작성일, 아이디(FK),&amp;nbsp;&lt;br style=&quot;font-size: 14px;&quot;&gt;&lt;span style=&quot;font-size: 14px;&quot;&gt;	&lt;/span&gt;&lt;span style=&quot;font-size: 14px;&quot;&gt;	&lt;/span&gt;&lt;span style=&quot;white-space: pre;&quot;&gt;	&lt;/span&gt;&amp;nbsp; &amp;nbsp;카테고리 번호(FK))&lt;br style=&quot;font-size: 14px;&quot;&gt;카테고리(&lt;u style=&quot;font-size: 14px;&quot;&gt;카테고리 번호&lt;/u&gt;, 카테고리명)" style="text;html=1;strokeColor=#d6b656;fillColor=#fff2cc;align=left;verticalAlign=top;rounded=0;fontSize=14;horizontal=1;whiteSpace=wrap;" vertex="1" parent="1">
          <mxGeometry y="550" width="330" height="280" as="geometry" />
        </mxCell>
        <mxCell id="AOfIHI2APopkAjNGr-oA-2" value="1" style="text;html=1;strokeColor=none;fillColor=none;align=center;verticalAlign=middle;whiteSpace=wrap;rounded=0;labelBackgroundColor=none;fontSize=14;" vertex="1" parent="1">
          <mxGeometry x="300" y="200" width="30" height="30" as="geometry" />
        </mxCell>
        <mxCell id="AOfIHI2APopkAjNGr-oA-3" value="N" style="text;html=1;strokeColor=none;fillColor=none;align=center;verticalAlign=middle;whiteSpace=wrap;rounded=0;labelBackgroundColor=none;fontSize=14;" vertex="1" parent="1">
          <mxGeometry x="470" y="200" width="30" height="30" as="geometry" />
        </mxCell>
        <mxCell id="AOfIHI2APopkAjNGr-oA-4" value="N" style="text;html=1;strokeColor=none;fillColor=none;align=center;verticalAlign=middle;whiteSpace=wrap;rounded=0;labelBackgroundColor=none;fontSize=14;" vertex="1" parent="1">
          <mxGeometry x="530" y="260" width="30" height="30" as="geometry" />
        </mxCell>
        <mxCell id="AOfIHI2APopkAjNGr-oA-5" value="1" style="text;html=1;strokeColor=none;fillColor=none;align=center;verticalAlign=middle;whiteSpace=wrap;rounded=0;labelBackgroundColor=none;fontSize=14;" vertex="1" parent="1">
          <mxGeometry x="530" y="400" width="30" height="30" as="geometry" />
        </mxCell>
      </root>
    </mxGraphModel>
  </diagram>
</mxfile>
